<svg width="100" height="100" viewBox="0 0 100 100" fill="none" xmlns="http://www.w3.org/2000/svg">
<rect width="100" height="100" rx="50" fill="#24BEE0" fill-opacity="0.1"/>
<path d="M56.248 65.0781C55.8167 65.0781 55.4667 65.4281 55.4667 65.8594C55.4667 66.2906 55.8167 66.6406 56.248 66.6406C56.6792 66.6406 57.0292 66.2906 57.0292 65.8594C57.0292 65.4281 56.6792 65.0781 56.248 65.0781Z" fill="#24BEE0"/>
<path d="M43.748 33.3594C43.3167 33.3594 42.9667 33.7094 42.9667 34.1406C42.9667 34.5719 43.3167 34.9219 43.748 34.9219C44.1792 34.9219 44.5292 34.5719 44.5292 34.1406C44.5292 33.7094 44.1792 33.3594 43.748 33.3594Z" fill="#24BEE0"/>
<path d="M64.8855 69.0923C64.4056 66.1809 63.7873 63.6561 62.7442 60.849C60.9041 55.8973 58.4414 52.2559 55.414 50.0045C60.8682 45.9598 63.8072 37.6051 64.8177 30.8962C64.8885 30.4255 64.5165 30.0066 64.0457 30.0063C62.9556 30.0055 61.7828 30.004 60.8855 30.0016C60.8848 30.0016 60.8841 30.0016 60.8835 30.0016C60.5015 30.0016 60.1755 30.2699 60.1128 30.6468C60.0371 31.1019 59.8589 32.0847 59.547 33.3594H46.6264C46.195 33.3594 45.8451 33.7092 45.8451 34.1406C45.8451 34.572 46.195 34.9141 46.6264 34.9141H59.1328C58.8342 35.9582 58.4606 37.1141 58.0011 38.2812H41.9564C40.5948 34.855 39.9791 31.6017 39.8178 30.6505C39.7539 30.2749 39.4285 30 39.0475 30H35.8857C35.4093 30 35.044 30.4234 35.1126 30.8939C36.0538 37.3584 39.1652 45.9337 44.5882 49.9912C39.0998 54.057 36.2421 62.3212 35.1794 69.1094C35.1128 69.5809 35.4796 70 35.9529 70H39.1131C39.495 70 39.8208 69.724 39.8836 69.3473C39.9596 68.8927 40.1378 67.912 40.4491 66.6406H53.3701C53.8015 66.6406 54.1514 66.2908 54.1514 65.8594C54.1514 65.428 53.8015 65.0781 53.3701 65.0781H40.8634C41.1621 64.0337 41.5357 62.8854 41.9949 61.7188H58.071C59.0341 64.1238 59.7213 66.5613 60.1509 69.1807C60.1623 69.2506 60.1721 69.3102 60.1803 69.3584C60.2439 69.7345 60.5696 69.9859 60.9505 69.9859C60.9518 69.9859 60.9531 69.9859 60.9544 69.9859C61.9231 69.9812 63.1589 69.9867 64.116 69.9852C64.596 69.9844 64.9642 69.5691 64.8855 69.0923ZM61.5373 31.5577C62.0359 31.5587 62.582 31.5595 63.1321 31.5601C62.075 37.69 59.1957 45.5977 54.0111 49.0842C53.4636 48.771 52.8989 48.4999 52.3203 48.2722C57.6308 45.3258 60.4131 37.5063 61.5373 31.5577ZM49.9956 47.575C48.3893 47.0867 46.9045 46.0655 45.5657 44.5312H54.4126C53.0795 46.0636 51.5989 47.0847 49.9956 47.575ZM57.3353 39.8359C56.8013 40.9937 56.221 42.0478 55.6024 42.9688H44.3715C43.7496 42.0476 43.1657 40.9935 42.6278 39.8359H57.3353ZM38.4585 68.4375H36.8649C37.922 62.3096 40.8012 54.3998 45.9882 50.9138C46.535 51.2276 47.0991 51.4992 47.6775 51.7273C42.365 54.6737 39.5682 62.5256 38.4585 68.4375ZM50.0014 52.4252C51.611 52.9139 53.1004 53.9348 54.4446 55.4688H45.5841C46.9172 53.9365 48.3979 52.9155 50.0014 52.4252ZM42.6609 60.1562C43.1953 58.9981 43.7757 57.9519 44.3942 57.0312H55.644C56.2678 57.9511 56.8544 58.9974 57.3957 60.1562H42.6609ZM61.612 68.4442C60.4397 61.628 56.7443 52.3676 49.8246 50.762C42.1452 48.9999 38.1954 39.2892 36.8021 31.5625H38.3955C39.7067 38.3808 43.1175 47.3145 49.7896 49.1418C49.7952 49.1434 49.801 49.1448 49.8066 49.1463C50.3864 49.3054 51.8076 49.5396 53.621 50.6709C57.5731 53.1345 59.9671 57.8616 61.2796 61.3933C62.4125 64.442 62.9782 67.2037 63.1968 68.44C62.675 68.4411 62.1261 68.4423 61.612 68.4442Z" fill="#24BEE0"/>
</svg>
