<svg width="100" height="100" viewBox="0 0 100 100" fill="none" xmlns="http://www.w3.org/2000/svg">
<rect width="100" height="100" rx="50" fill="#24BEE0" fill-opacity="0.1"/>
<path d="M38.2814 44.5311C37.8501 44.5311 37.5001 44.8811 37.5001 45.3124C37.5001 45.7436 37.8501 46.0936 38.2814 46.0936C38.7126 46.0936 39.0626 45.7436 39.0626 45.3124C39.0626 44.8811 38.7126 44.5311 38.2814 44.5311Z" fill="#24BEE0"/>
<path d="M57.0312 46.0936H53.1249V42.1874C53.1249 41.756 52.7751 41.4061 52.3437 41.4061H47.6562C47.2247 41.4061 46.8749 41.756 46.8749 42.1874V46.0936H42.9686C42.5372 46.0936 42.1874 46.4435 42.1874 46.8749V51.5624C42.1874 51.9938 42.5372 52.3437 42.9686 52.3437H46.8749V56.2499C46.8749 56.6813 47.2247 57.0312 47.6562 57.0312H52.3437C52.7751 57.0312 53.1249 56.6813 53.1249 56.2499V52.3437H57.0312C57.4626 52.3437 57.8124 51.9938 57.8124 51.5624V46.8749C57.8124 46.4435 57.4626 46.0936 57.0312 46.0936ZM56.2499 50.7812H52.3437C51.9123 50.7812 51.5624 51.131 51.5624 51.5624V55.4687H48.4374V51.5624C48.4374 51.131 48.0876 50.7812 47.6562 50.7812H43.7499V47.6562H47.6562C48.0876 47.6562 48.4374 47.3063 48.4374 46.8749V42.9686H51.5624V46.8749C51.5624 47.3063 51.9123 47.6562 52.3437 47.6562H56.2499V50.7812Z" fill="#24BEE0"/>
<path d="M62.0608 32.4016C60.7959 33.2229 59.3269 33.6569 57.8127 33.6569C55.4969 33.6569 53.314 32.6379 51.8238 30.8611C51.8237 30.8611 51.8237 30.8611 51.8237 30.8611C51.3647 30.3139 50.7 30 50.0002 30C49.3003 30 48.6356 30.3139 48.1766 30.861C46.6863 32.6378 44.5034 33.6568 42.1877 33.6568C40.6734 33.6568 39.2044 33.2227 37.9396 32.4016C36.3948 31.399 34.3751 32.5794 34.3751 34.399V50.3343C34.3751 53.8789 35.5122 57.3421 37.5765 60.0859C42.6836 66.8765 49.4084 69.8148 49.6921 69.9366C49.7905 69.9788 49.8954 70 50.0002 70C50.105 70 50.21 69.9788 50.3082 69.9366C50.592 69.8148 57.3168 66.8766 62.4237 60.0868C64.4883 57.3421 65.6252 53.8786 65.6252 50.3343V34.3991C65.6252 32.5793 63.6051 31.399 62.0608 32.4016ZM61.1751 59.1475C56.928 64.794 51.3575 67.7049 49.9997 68.358C48.6413 67.7065 43.0816 64.8064 38.8252 59.1467C36.9631 56.6719 35.9376 53.5424 35.9376 50.3344V34.3991C35.9376 33.8043 36.594 33.3911 37.0887 33.7122C38.6076 34.6982 40.3708 35.2194 42.1877 35.2194C44.9666 35.2194 47.5859 33.9969 49.3737 31.8652C49.5374 31.67 49.7599 31.5625 50.0002 31.5625C50.2405 31.5625 50.4629 31.67 50.6266 31.8652C52.4146 33.9968 55.0338 35.2194 57.8127 35.2194C59.6296 35.2194 61.3927 34.6982 62.9116 33.7122C63.3984 33.396 64.0627 33.7953 64.0627 34.3991V50.3343C64.0627 53.542 63.0373 56.6719 61.1751 59.1475Z" fill="#24BEE0"/>
<path d="M62.1697 36.2517C61.9623 36.1053 61.6969 36.0687 61.4577 36.1535C60.2823 36.5705 59.0559 36.7819 57.8127 36.7819C55.1273 36.7819 52.5375 35.7906 50.5203 33.9905C50.224 33.7261 49.7763 33.7261 49.48 33.9905C47.4629 35.7906 44.873 36.7819 42.1876 36.7819C40.9444 36.7819 39.718 36.5705 38.5426 36.1535C38.3033 36.0687 38.038 36.1053 37.8307 36.2517C37.6235 36.3981 37.5002 36.6361 37.5002 36.8898V42.1875C37.5002 42.6189 37.85 42.9688 38.2815 42.9688C38.7129 42.9688 39.0627 42.6189 39.0627 42.1875V37.9458C40.0829 38.2107 41.1299 38.3445 42.1877 38.3445C45.0311 38.3445 47.7795 37.3732 50.0002 35.596C52.221 37.3732 54.9694 38.3445 57.8128 38.3445C58.8706 38.3445 59.9176 38.2107 60.9378 37.9458V50.3344C60.9378 52.8696 60.1352 55.3316 58.6773 57.2672C55.7232 61.1966 52.115 63.6297 50.0076 64.8276C47.8835 63.614 44.2522 61.1625 41.3229 57.2685C39.8654 55.3317 39.0626 52.8691 39.0626 50.3343V48.4374C39.0626 48.006 38.7128 47.6562 38.2814 47.6562C37.85 47.6562 37.5001 48.006 37.5001 48.4374V50.3343C37.5001 53.2059 38.4143 56.0022 40.0743 58.2079C43.3595 62.5752 47.4713 65.2196 49.6298 66.4072C49.747 66.4717 49.8767 66.5039 50.0063 66.5039C50.1353 66.5039 50.2643 66.472 50.381 66.4082C52.5229 65.2376 56.6111 62.6154 59.9258 58.2067C61.5858 56.0023 62.5001 53.2066 62.5001 50.3343V36.8897C62.5001 36.636 62.3769 36.3981 62.1697 36.2517Z" fill="#24BEE0"/>
</svg>
