<svg width="100" height="100" viewBox="0 0 100 100" fill="none" xmlns="http://www.w3.org/2000/svg">
<rect width="100" height="100" rx="50" fill="#24BEE0" fill-opacity="0.1"/>
<g clip-path="url(#clip0_90_1192)">
<path d="M60.8865 39.1135C60.5811 38.808 60.0865 38.808 59.7818 39.1135C59.4764 39.419 59.4764 39.9135 59.7818 40.2182C60.0865 40.5236 60.5811 40.5236 60.8865 40.2182C61.192 39.9135 61.192 39.419 60.8865 39.1135Z" fill="#24BEE0"/>
<path d="M40.2182 59.7818C39.9135 59.4764 39.4182 59.4764 39.1135 59.7818C38.808 60.0865 38.808 60.5818 39.1135 60.8865C39.4182 61.1919 39.9135 61.1919 40.2182 60.8865C40.5237 60.5818 40.5237 60.0865 40.2182 59.7818Z" fill="#24BEE0"/>
<path d="M68.8541 42.1942L57.806 31.1462C56.2795 29.6187 53.8089 29.6185 52.2815 31.146L31.145 52.2824C29.6183 53.8092 29.6171 56.2797 31.145 57.8066L42.1931 68.8546C42.1931 68.8546 42.1931 68.8546 42.1933 68.8548C43.7196 70.3821 46.1901 70.3823 47.7176 68.8548L68.854 47.7185C70.3807 46.1917 70.382 43.7211 68.8541 42.1942ZM67.7492 46.6136L46.6128 67.7501C45.6967 68.6662 44.2148 68.6673 43.2984 67.7503C43.2984 67.7502 43.2983 67.7501 43.2982 67.7501L32.2498 56.7016C31.3334 55.7859 31.3331 54.3038 32.2499 53.3873L53.3862 32.2508C54.3026 31.3344 55.7844 31.3337 56.7008 32.2508L67.7492 43.2993C68.6658 44.215 68.666 45.6971 67.7492 46.6136Z" fill="#24BEE0"/>
<path d="M64.7536 42.9803C63.535 41.762 61.5525 41.7619 60.3342 42.9802C59.1127 44.2007 59.1118 46.1782 60.334 47.3992C61.5556 48.621 63.5319 48.621 64.7536 47.3992V47.3992C65.9744 46.1784 65.9746 44.2014 64.7536 42.9803ZM63.6488 46.2944C63.0379 46.9053 62.0501 46.9058 61.4386 46.2942C60.8281 45.6842 60.8276 44.6959 61.4388 44.0853C62.0482 43.4759 63.0395 43.476 63.6488 44.0853C64.2589 44.6954 64.2589 45.6842 63.6488 46.2944Z" fill="#24BEE0"/>
<path d="M58.9954 48.7389C57.7768 47.5205 55.7943 47.5204 54.576 48.7387C53.3543 49.9594 53.3538 51.9365 54.576 53.1588C55.7944 54.3762 57.7767 54.3762 58.9952 53.1588C58.9953 53.1587 58.9955 53.1585 58.9956 53.1583C60.2135 51.9393 60.2134 49.9569 58.9954 48.7389ZM57.8906 52.0537C57.2811 52.6626 56.2897 52.6624 55.6806 52.0537C55.0699 51.4431 55.0693 50.4545 55.6806 49.8437C56.29 49.2344 57.2813 49.2344 57.8906 49.8437C58.4995 50.4526 58.4995 51.444 57.8906 52.0537Z" fill="#24BEE0"/>
<path d="M53.1586 54.5756C51.9375 53.3546 49.9603 53.3534 48.739 54.5756C47.5206 55.7942 47.5206 57.7768 48.739 58.9953C49.9572 60.2134 51.9396 60.2132 53.1584 58.9955C53.1585 58.9954 53.1587 58.9952 53.1589 58.995C54.3761 57.7766 54.3761 55.7942 53.1586 54.5756ZM52.0536 57.8907C51.4439 58.4993 50.4528 58.4994 49.8439 57.8904C49.2346 57.2811 49.2346 56.2897 49.8442 55.6802C50.4533 55.0705 51.4419 55.0685 52.0536 55.6801C52.6625 56.2897 52.6625 57.2813 52.0536 57.8907Z" fill="#24BEE0"/>
<path d="M47.3996 60.3343C46.179 59.1127 44.2016 59.1121 42.9805 60.3341C41.762 61.5527 41.762 63.5353 42.9805 64.7538C44.1988 65.972 46.1809 65.9721 47.3994 64.7538C47.3994 64.7538 47.3994 64.7538 47.3994 64.7537C48.6178 63.5352 48.6178 61.5526 47.3996 60.3343ZM46.2945 63.6489C45.6855 64.2579 44.6945 64.2579 44.0854 63.6489C43.4761 63.0396 43.4761 62.0482 44.0856 61.4386C44.6958 60.828 45.6839 60.8278 46.2945 61.4388C46.9038 62.0482 46.9038 63.0397 46.2945 63.6489Z" fill="#24BEE0"/>
<path d="M57.0194 35.2461C55.801 34.0279 53.8189 34.0277 52.6005 35.2462C51.3821 36.4647 51.3821 38.4473 52.6003 39.6656C53.8213 40.8875 55.7986 40.8875 57.0196 39.6656C58.2378 38.4471 58.2378 36.4646 57.0194 35.2461ZM55.9145 38.561C55.9144 38.5611 55.9143 38.5612 55.9142 38.5613C55.3041 39.1719 54.316 39.1721 53.7053 38.5611C53.096 37.9517 53.096 36.9603 53.7053 36.351C54.3145 35.7419 55.3053 35.7419 55.9145 36.351C56.5238 36.9603 56.5238 37.9517 55.9145 38.561Z" fill="#24BEE0"/>
<path d="M51.2608 41.0047C50.0428 39.7868 48.0603 39.7866 46.841 41.0051C45.6238 42.2234 45.6238 44.2058 46.8413 45.4244C48.0627 46.6458 50.0398 46.6464 51.2611 45.4242C52.4793 44.2057 52.4792 42.2232 51.2608 41.0047ZM50.156 44.3196C50.1559 44.3197 50.1559 44.3197 50.1558 44.3198C49.5466 44.9294 48.558 44.9315 47.9463 44.3199C47.3373 43.7104 47.3373 42.7188 47.9458 42.1098C48.5549 41.5012 49.5466 41.5 50.156 42.1096C50.7653 42.7189 50.7653 43.7103 50.156 44.3196Z" fill="#24BEE0"/>
<path d="M45.424 46.841C44.2055 45.6237 42.2232 45.6236 41.0044 46.8416C39.7866 48.0605 39.7866 50.043 41.0046 51.2609C42.223 52.4791 44.2054 52.4796 45.424 51.2612C46.6457 50.0405 46.6462 48.0633 45.424 46.841ZM44.3197 50.1558C44.3196 50.1559 44.3195 50.156 44.3194 50.1561C43.7101 50.7654 42.7188 50.7654 42.1095 50.1561C41.5004 49.5472 41.5005 48.5555 42.1092 47.9463C42.7183 47.3377 43.7101 47.3371 44.3194 47.9461C44.9298 48.5564 44.931 49.5451 44.3197 50.1558Z" fill="#24BEE0"/>
<path d="M39.666 52.6008C38.4444 51.3789 36.4681 51.3788 35.2464 52.6006C34.0255 53.8215 34.0254 55.7984 35.2464 57.0195C36.4647 58.2377 38.4472 58.2382 39.6658 57.0198C40.8872 55.7994 40.8881 53.8217 39.666 52.6008ZM38.5614 55.9144C38.5613 55.9145 38.5612 55.9146 38.5611 55.9147C37.9519 56.524 36.9604 56.524 36.3512 55.9147C35.741 55.3046 35.7408 54.3158 36.3512 53.7055C36.962 53.0946 37.9498 53.0941 38.5614 53.7058C39.172 54.3159 39.172 55.3042 38.5614 55.9144Z" fill="#24BEE0"/>
<path d="M58.6765 41.3234C58.3715 41.0186 57.8768 41.0184 57.5717 41.3234L41.3228 57.5716C41.0178 57.8767 41.0177 58.3714 41.3228 58.6765C41.628 58.9816 42.1226 58.9816 42.4277 58.6765L58.6765 42.4283C58.9816 42.1233 58.9817 41.6286 58.6765 41.3234Z" fill="#24BEE0"/>
</g>
<defs>
<clipPath id="clip0_90_1192">
<rect width="40" height="40" fill="white" transform="translate(30 30)"/>
</clipPath>
</defs>
</svg>
