<svg width="100" height="100" viewBox="0 0 100 100" fill="none" xmlns="http://www.w3.org/2000/svg">
<rect width="100" height="100" rx="50" fill="#24BEE0" fill-opacity="0.1"/>
<g clip-path="url(#clip0_90_1260)">
<path d="M51.5625 60.625C51.1312 60.625 50.7812 60.975 50.7812 61.4062C50.7812 61.8375 51.1312 62.1875 51.5625 62.1875C51.9937 62.1875 52.3438 61.8375 52.3438 61.4062C52.3438 60.975 51.9937 60.625 51.5625 60.625Z" fill="#24BEE0"/>
<path d="M67.6562 65.3125H67.6213C69.0595 64.147 70 62.4473 70 60.625C70 57.9858 68.3298 55.6184 65.8439 54.7342C65.8405 54.733 65.8372 54.7319 65.8338 54.7307L59.1558 52.457L61.6117 39.8438H62.5C64.6539 39.8438 66.4062 38.0914 66.4062 35.9375V32.3438C66.4062 31.0514 65.3548 30 64.0625 30C62.7676 30 61.7188 31.0488 61.7188 32.3438V35.1562H57.8125C56.5202 35.1562 55.4688 36.2077 55.4688 37.5C55.4688 38.4511 56.0485 39.2797 56.873 39.6448L54.6795 50.933L43.5537 47.145C42.8999 46.9127 42.2221 46.7497 41.5331 46.6565L40.1662 41.4062H42.7289C43.5023 41.4062 44.2295 41.105 44.7766 40.558C45.3238 40.0109 45.625 39.2836 45.625 38.5102C45.625 37.0892 44.6073 35.8879 43.205 35.6537C33.6813 34.0839 34.1808 34.1102 33.6414 34.1102C31.6335 34.1102 30 35.7469 30 37.7586C30 39.7699 31.6363 41.4062 33.6477 41.4062H35.3075L36.8022 47.1305C32.7606 48.5407 30 52.3778 30 56.7188C30 60.3023 31.8756 63.5009 34.7414 65.3125H32.3438C31.0489 65.3125 30 66.3613 30 67.6562C30 68.9486 31.0514 70 32.3438 70H67.6562C68.9512 70 70 68.9512 70 67.6562C70 66.3639 68.9486 65.3125 67.6562 65.3125ZM57.8125 36.7188H62.5C62.9314 36.7188 63.2812 36.3689 63.2812 35.9375V32.3438C63.2812 31.9126 63.6312 31.5625 64.0625 31.5625C64.4933 31.5625 64.8438 31.913 64.8438 32.3438V35.9375C64.8438 37.2298 63.7923 38.2812 62.5 38.2812C61.5773 38.2812 58.8129 38.2812 57.8449 38.2812C57.8199 38.2792 57.7952 38.2784 57.7705 38.2788C57.3605 38.2573 57.0312 37.9138 57.0312 37.5C57.0312 37.0692 57.3817 36.7188 57.8125 36.7188ZM58.4259 39.8438H60.0199L57.663 51.9487L56.1724 51.4412L58.4259 39.8438ZM33.6477 39.8438C32.4979 39.8438 31.5625 38.9083 31.5625 37.7586C31.5625 36.6084 32.4951 35.6727 33.6414 35.6727C33.9609 35.6727 33.5705 35.642 42.9479 37.1948C43.5938 37.3027 44.0625 37.8559 44.0625 38.5102C44.0625 38.8663 43.9237 39.2012 43.6718 39.453C43.4198 39.705 43.085 39.8438 42.7289 39.8438H33.6477ZM39.8952 46.5667C39.3621 46.5802 38.8329 46.6355 38.3127 46.7311L36.9224 41.4062H38.5516L39.8952 46.5667ZM31.5625 56.7188C31.5625 52.824 34.1879 49.4082 37.9479 48.412C39.5605 47.9825 41.3594 48.0221 43.0348 48.6188C43.0382 48.6201 43.0416 48.6212 43.0451 48.6224L65.3252 56.2081C67.187 56.8728 68.4375 58.6472 68.4375 60.625C68.4375 63.0777 65.9811 65.2333 63.2835 65.2344L39.0433 65.2416C34.7752 64.6898 31.5625 61.0339 31.5625 56.7188ZM67.6562 68.4375H32.3438C31.913 68.4375 31.5625 68.087 31.5625 67.6562C31.5625 67.2249 31.9124 66.875 32.3438 66.875C32.9972 66.875 60.6298 66.875 67.6562 66.875C68.087 66.875 68.4375 67.2255 68.4375 67.6562C68.4375 68.0874 68.0876 68.4375 67.6562 68.4375Z" fill="#24BEE0"/>
<path d="M59.375 55.9375C57.2211 55.9375 55.4688 57.6898 55.4688 59.8438C55.4688 61.9977 57.2211 63.75 59.375 63.75C61.5289 63.75 63.2812 61.9977 63.2812 59.8438C63.2812 57.6898 61.5289 55.9375 59.375 55.9375ZM59.375 62.1875C58.0827 62.1875 57.0312 61.1361 57.0312 59.8438C57.0312 58.5514 58.0827 57.5 59.375 57.5C60.6673 57.5 61.7188 58.5514 61.7188 59.8438C61.7188 61.1361 60.6673 62.1875 59.375 62.1875Z" fill="#24BEE0"/>
<path d="M48.4375 60.625H45.1673L44.5364 59.9941C45.2425 59.0533 45.625 57.9154 45.625 56.7188C45.625 53.7033 43.1717 51.25 40.1562 51.25C37.1408 51.25 34.6875 53.7033 34.6875 56.7188C34.6875 59.7342 37.1408 62.1875 40.1562 62.1875C41.3527 62.1875 42.4905 61.8052 43.4315 61.0989L44.2913 61.9588C44.4378 62.1052 44.6366 62.1876 44.8438 62.1876H48.4375C48.8689 62.1876 49.2188 61.8377 49.2188 61.4063C49.2188 60.9749 48.8689 60.625 48.4375 60.625ZM43.4158 58.8734L40.7087 56.1663C40.4036 55.8613 39.9089 55.8613 39.6038 56.1663C39.2987 56.4714 39.2987 56.9661 39.6038 57.2712L42.3109 59.9783C41.677 60.3989 40.9339 60.625 40.1562 60.625C38.0023 60.625 36.25 58.8727 36.25 56.7188C36.25 54.5648 38.0023 52.8125 40.1562 52.8125C42.3102 52.8125 44.0625 54.5648 44.0625 56.7188C44.0625 57.4965 43.8363 58.2397 43.4158 58.8734Z" fill="#24BEE0"/>
</g>
<defs>
<clipPath id="clip0_90_1260">
<rect width="40" height="40" fill="white" transform="translate(30 30)"/>
</clipPath>
</defs>
</svg>
