<svg width="54" height="34" viewBox="0 0 54 34" fill="none" xmlns="http://www.w3.org/2000/svg">
<path d="M10.9007 33.6667C12.6006 33.6667 14.1673 32.7 14.9006 31.2L19.634 21.7334C20.1006 20.8 20.334 19.8 20.334 18.7667V3.66671C20.334 1.83337 18.834 0.333374 17.0006 0.333374H3.66732C1.83398 0.333374 0.333984 1.83337 0.333984 3.66671V17C0.333984 18.8334 1.83398 20.3334 3.66732 20.3334H10.334L6.90065 27.2C5.40065 30.1667 7.56732 33.6667 10.9007 33.6667ZM44.234 33.6667C45.934 33.6667 47.5006 32.7 48.234 31.2L52.9673 21.7334C53.434 20.8 53.6673 19.8 53.6673 18.7667V3.66671C53.6673 1.83337 52.1673 0.333374 50.334 0.333374H37.0006C35.1673 0.333374 33.6673 1.83337 33.6673 3.66671V17C33.6673 18.8334 35.1673 20.3334 37.0006 20.3334H43.6673L40.234 27.2C38.734 30.1667 40.9006 33.6667 44.234 33.6667Z" fill="#12CCF4" fill-opacity="0.3"/>
</svg>
