<svg width="20" height="21" viewBox="0 0 20 21" fill="none" xmlns="http://www.w3.org/2000/svg">
<path d="M10.1179 5.99154C9.9229 6.09674 9.80133 6.29678 9.80133 6.51435V9.90222H3.11191C2.77414 9.90222 2.5 10.17 2.5 10.4999C2.5 10.8299 2.77414 11.0977 3.11191 11.0977H9.80133V14.4855C9.80133 14.7039 9.9229 14.9039 10.1179 15.0083C10.3129 15.1143 10.5511 15.1072 10.7396 14.9916L17.2144 11.006C17.3923 10.896 17.5 10.7056 17.5 10.4999C17.5 10.2943 17.3923 10.1038 17.2144 9.99387L10.7396 6.00828C10.6401 5.94771 10.5267 5.91663 10.4132 5.91663C10.3121 5.91663 10.2101 5.94213 10.1179 5.99154Z" fill="white"/>
</svg>
